<svg width="41" height="42" viewBox="0 0 41 42" fill="none" xmlns="http://www.w3.org/2000/svg">
<ellipse cx="20.3706" cy="20.785" rx="20.086" ry="20.496" fill="#303030"/>
<path d="M11.748 17.0329V21.5432C11.748 22.724 13.5502 22.7288 13.5502 21.5432V17.0329C13.5502 15.8521 11.748 15.8473 11.748 17.0329Z" fill="white"/>
<path d="M26.6191 17.0329V21.5432C26.6191 22.724 28.4213 22.7288 28.4213 21.5432V17.0329C28.4213 15.8521 26.6191 15.8473 26.6191 17.0329Z" fill="white"/>
<path d="M15.4673 13.4274V25.0272C15.4673 26.208 17.2694 26.2129 17.2694 25.0272V13.4274C17.2694 12.2467 15.4673 12.2418 15.4673 13.4274Z" fill="white"/>
<path d="M22.9004 13.4274V25.0272C22.9004 26.208 24.7025 26.2129 24.7025 25.0272V13.4274C24.7025 12.2467 22.9004 12.2418 22.9004 13.4274Z" fill="white"/>
<path d="M19.186 16.6071V28.2069C19.186 29.3877 20.9882 29.3925 20.9882 28.2069V16.6071C20.9882 15.4263 19.186 15.4215 19.186 16.6071Z" fill="white"/>
</svg>
