<svg width="36" height="35" viewBox="0 0 36 35" fill="none" xmlns="http://www.w3.org/2000/svg">
<g filter="url(#filter0_d_3_18782)">
<rect x="2.09424" y="1.25586" width="31.85" height="31.85" rx="15.925" fill="#437EF7"/>
<path d="M12.9151 14.6279H23.1233C23.123 14.1235 23.1165 13.859 23.0121 13.6541C22.9142 13.462 22.7581 13.3058 22.566 13.2079C22.3476 13.0967 22.0618 13.0967 21.49 13.0967H14.5484C13.9767 13.0967 13.6908 13.0967 13.4724 13.2079C13.2803 13.3058 13.1242 13.462 13.0263 13.6541C12.9219 13.859 12.9155 14.1235 12.9151 14.6279Z" fill="white"/>
<path fill-rule="evenodd" clip-rule="evenodd" d="M23.1234 15.6488H12.915V19.63C12.915 20.2017 12.915 20.4876 13.0263 20.706C13.1242 20.898 13.2803 21.0542 13.4724 21.1521C13.6908 21.2633 13.9767 21.2633 14.5484 21.2633H21.49C22.0618 21.2633 22.3476 21.2633 22.566 21.1521C22.7581 21.0542 22.9142 20.898 23.0121 20.706C23.1234 20.4876 23.1234 20.2017 23.1234 19.63V15.6488ZM14.4463 19.2217C14.4463 18.9398 14.6748 18.7113 14.9567 18.7113H16.9984C17.2803 18.7113 17.5088 18.9398 17.5088 19.2217C17.5088 19.5036 17.2803 19.7321 16.9984 19.7321H14.9567C14.6748 19.7321 14.4463 19.5036 14.4463 19.2217ZM19.04 18.7113C18.7581 18.7113 18.5296 18.9398 18.5296 19.2217C18.5296 19.5036 18.7581 19.7321 19.04 19.7321H21.0817C21.3636 19.7321 21.5921 19.5036 21.5921 19.2217C21.5921 18.9398 21.3636 18.7113 21.0817 18.7113H19.04Z" fill="white"/>
</g>
<defs>
<filter id="filter0_d_3_18782" x="0.869238" y="0.643359" width="34.3001" height="34.2996" filterUnits="userSpaceOnUse" color-interpolation-filters="sRGB">
<feFlood flood-opacity="0" result="BackgroundImageFix"/>
<feColorMatrix in="SourceAlpha" type="matrix" values="0 0 0 0 0 0 0 0 0 0 0 0 0 0 0 0 0 0 127 0" result="hardAlpha"/>
<feOffset dy="0.6125"/>
<feGaussianBlur stdDeviation="0.6125"/>
<feComposite in2="hardAlpha" operator="out"/>
<feColorMatrix type="matrix" values="0 0 0 0 0.0627451 0 0 0 0 0.0941176 0 0 0 0 0.156863 0 0 0 0.04 0"/>
<feBlend mode="normal" in2="BackgroundImageFix" result="effect1_dropShadow_3_18782"/>
<feBlend mode="normal" in="SourceGraphic" in2="effect1_dropShadow_3_18782" result="shape"/>
</filter>
</defs>
</svg>
