<svg width="36" height="37" viewBox="0 0 36 37" fill="none" xmlns="http://www.w3.org/2000/svg">
<g filter="url(#filter0_d_3_18776)">
<rect x="2.05664" y="1.29297" width="31.85" height="31.85" rx="15.925" fill="#5DC264"/>
<path d="M19.0024 17.013C19.0024 16.7271 19.0024 16.5842 19.0581 16.475C19.107 16.3789 19.1851 16.3009 19.2811 16.2519C19.3903 16.1963 19.5332 16.1963 19.8191 16.1963H22.2691C22.555 16.1963 22.6979 16.1963 22.8071 16.2519C22.9031 16.3009 22.9812 16.3789 23.0301 16.475C23.0858 16.5842 23.0858 16.7271 23.0858 17.013V17.4213C23.0858 17.7071 23.0858 17.8501 23.0301 17.9593C22.9812 18.0553 22.9031 18.1334 22.8071 18.1823C22.6979 18.238 22.555 18.238 22.2691 18.238H19.8191C19.5332 18.238 19.3903 18.238 19.2811 18.1823C19.1851 18.1334 19.107 18.0553 19.0581 17.9593C19.0024 17.8501 19.0024 17.7071 19.0024 17.4213V17.013Z" fill="white"/>
<path d="M20.4316 13.1338H14.5108C13.9391 13.1338 13.6532 13.1338 13.4348 13.2451C13.2427 13.3429 13.0866 13.4991 12.9887 13.6912C12.8774 13.9095 12.8774 14.1954 12.8774 14.7671V19.6671C12.8774 20.2388 12.8774 20.5247 12.9887 20.7431C13.0866 20.9352 13.2427 21.0913 13.4348 21.1892C13.6532 21.3005 13.9391 21.3005 14.5108 21.3005H20.4316C21.0033 21.3005 21.2892 21.3005 21.5076 21.1892C21.6996 21.0913 21.8558 20.9352 21.9537 20.7431C22.0649 20.5247 22.0649 20.2388 22.0649 19.6671V19.2588L19.7955 19.2588C19.6739 19.2588 19.5287 19.2589 19.4008 19.2484C19.2525 19.2363 19.0402 19.2053 18.8177 19.0919C18.5296 18.9451 18.2953 18.7108 18.1485 18.4227C18.0352 18.2002 18.0041 17.9879 17.992 17.8397C17.9815 17.7117 17.9816 17.5665 17.9816 17.4449V16.9893C17.9816 16.8677 17.9815 16.7225 17.992 16.5946C18.0041 16.4463 18.0352 16.234 18.1485 16.0115C18.2953 15.7234 18.5296 15.4892 18.8177 15.3423C19.0402 15.229 19.2525 15.1979 19.4008 15.1858C19.5287 15.1753 19.6739 15.1754 19.7955 15.1754L22.0649 15.1755V14.7671C22.0649 14.1954 22.0649 13.9095 21.9537 13.6912C21.8558 13.4991 21.6996 13.3429 21.5076 13.2451C21.2892 13.1338 21.0033 13.1338 20.4316 13.1338Z" fill="white"/>
</g>
<defs>
<filter id="filter0_d_3_18776" x="0.0566406" y="0.292969" width="35.8501" height="35.8496" filterUnits="userSpaceOnUse" color-interpolation-filters="sRGB">
<feFlood flood-opacity="0" result="BackgroundImageFix"/>
<feColorMatrix in="SourceAlpha" type="matrix" values="0 0 0 0 0 0 0 0 0 0 0 0 0 0 0 0 0 0 127 0" result="hardAlpha"/>
<feOffset dy="1"/>
<feGaussianBlur stdDeviation="1"/>
<feComposite in2="hardAlpha" operator="out"/>
<feColorMatrix type="matrix" values="0 0 0 0 0.0627451 0 0 0 0 0.0941176 0 0 0 0 0.156863 0 0 0 0.04 0"/>
<feBlend mode="normal" in2="BackgroundImageFix" result="effect1_dropShadow_3_18776"/>
<feBlend mode="normal" in="SourceGraphic" in2="effect1_dropShadow_3_18776" result="shape"/>
</filter>
</defs>
</svg>
