<svg width="32" height="32" viewBox="0 0 32 32" fill="none" xmlns="http://www.w3.org/2000/svg">
<path d="M23.0569 14.2763L14.8539 22.4793C13.5986 20.2473 11.7525 18.4013 9.52052 17.146L19.8246 6.84194C20.3526 6.31393 20.6166 6.04992 20.9211 5.951C21.1888 5.86399 21.4773 5.86399 21.7451 5.951C22.0495 6.04992 22.3135 6.31393 22.8416 6.84195L25.1579 9.1583C25.6859 9.68632 25.9499 9.95033 26.0489 10.2548C26.1359 10.5226 26.1359 10.811 26.0489 11.0788C25.9499 11.3833 25.6859 11.6473 25.1579 12.1753L24.9426 12.3906L27.1378 14.5859C27.9189 15.367 27.9189 16.6333 27.1378 17.4143L23.6092 20.9429C23.0885 21.4636 22.2443 21.4636 21.7236 20.9429C21.2029 20.4222 21.2029 19.578 21.7236 19.0573L24.7808 16.0001L23.0569 14.2763Z" fill="#437EF7"/>
<path d="M7.68123 19.6223L6.68231 22.6191C6.24805 23.9219 6.03092 24.5733 6.18539 25.0064C6.31981 25.3834 6.61646 25.6801 6.99342 25.8145C7.4266 25.9689 8.078 25.7518 9.38077 25.3176L12.3775 24.3186C12.5285 24.2683 12.6478 24.2285 12.7475 24.1933C11.6635 22.067 9.93283 20.3364 7.8066 19.2524C7.77132 19.3521 7.73155 19.4714 7.68123 19.6223Z" fill="#437EF7"/>
</svg>
