<svg width="36" height="35" viewBox="0 0 36 35" fill="none" xmlns="http://www.w3.org/2000/svg">
<g filter="url(#filter0_d_3_18771)">
<rect x="2.09424" y="1.29297" width="31.85" height="31.85" rx="15.925" fill="#F04438"/>
<g clip-path="url(#clip0_3_18771)">
<path fill-rule="evenodd" clip-rule="evenodd" d="M21.5921 16.1801H22.4251C22.4932 16.1801 22.5272 16.1801 22.5561 16.1686C22.5817 16.1584 22.6044 16.1419 22.622 16.1205C22.6419 16.0963 22.6527 16.0636 22.6742 15.9982L22.9828 15.0603C23.0849 14.7498 23.136 14.5946 23.1207 14.4506C23.1073 14.3238 23.0581 14.2035 22.9791 14.1041C22.8894 13.9914 22.7449 13.9182 22.4561 13.7719L18.4889 11.762C18.3167 11.6747 18.2306 11.6311 18.1403 11.6139C18.0603 11.5987 17.9782 11.5987 17.8982 11.6139C17.8078 11.6311 17.7217 11.6747 17.5495 11.762L13.5824 13.7719C13.2935 13.9182 13.149 13.9914 13.0593 14.1041C12.9803 14.2035 12.9311 14.3238 12.9177 14.4506C12.9024 14.5946 12.9535 14.7498 13.0557 15.0603L13.3642 15.9982C13.3857 16.0636 13.3965 16.0963 13.4164 16.1205C13.4341 16.1419 13.4567 16.1584 13.4823 16.1686C13.5112 16.1801 13.5452 16.1801 13.6133 16.1801H14.4463V20.1711H14.2441C13.9509 20.1711 13.8043 20.1711 13.6823 20.223C13.5747 20.2688 13.4811 20.3429 13.4111 20.4376C13.3318 20.5449 13.2963 20.689 13.2251 20.9772L13.0939 21.5093C12.9826 21.9601 12.927 22.1855 12.9812 22.363C13.0286 22.5185 13.1308 22.6511 13.2682 22.7354C13.425 22.8317 13.6543 22.8317 14.1128 22.8317H21.9256C22.3841 22.8317 22.6134 22.8317 22.7702 22.7354C22.9077 22.6511 23.0098 22.5185 23.0572 22.363C23.1114 22.1855 23.0558 21.9601 22.9446 21.5093L22.8133 20.9772C22.7422 20.689 22.7066 20.5449 22.6273 20.4376C22.5573 20.3429 22.4637 20.2688 22.3561 20.223C22.2341 20.1711 22.0875 20.1711 21.7943 20.1711H21.5921V16.1801ZM20.5713 16.1801H18.5296V20.1711H20.5713V16.1801ZM17.5088 20.1711V16.1801H15.4671V20.1711H17.5088Z" fill="white"/>
</g>
</g>
<defs>
<filter id="filter0_d_3_18771" x="0.869238" y="0.680469" width="34.3001" height="34.2996" filterUnits="userSpaceOnUse" color-interpolation-filters="sRGB">
<feFlood flood-opacity="0" result="BackgroundImageFix"/>
<feColorMatrix in="SourceAlpha" type="matrix" values="0 0 0 0 0 0 0 0 0 0 0 0 0 0 0 0 0 0 127 0" result="hardAlpha"/>
<feOffset dy="0.6125"/>
<feGaussianBlur stdDeviation="0.6125"/>
<feComposite in2="hardAlpha" operator="out"/>
<feColorMatrix type="matrix" values="0 0 0 0 0.0627451 0 0 0 0 0.0941176 0 0 0 0 0.156863 0 0 0 0.04 0"/>
<feBlend mode="normal" in2="BackgroundImageFix" result="effect1_dropShadow_3_18771"/>
<feBlend mode="normal" in="SourceGraphic" in2="effect1_dropShadow_3_18771" result="shape"/>
</filter>
<clipPath id="clip0_3_18771">
<rect width="12.25" height="12.25" fill="white" transform="translate(11.894 11.0928)"/>
</clipPath>
</defs>
</svg>
