<svg width="36" height="35" viewBox="0 0 36 35" fill="none" xmlns="http://www.w3.org/2000/svg">
<g filter="url(#filter0_d_3_18787)">
<rect x="2.05664" y="1.25586" width="31.85" height="31.85" rx="15.925" fill="#FFAE43"/>
<path d="M17.4709 11.5889C16.3037 11.694 15.2395 12.1564 14.3884 12.8659L17.4709 15.9483V11.5889Z" fill="white"/>
<path d="M13.6666 13.5877C12.855 14.5613 12.3667 15.8139 12.3667 17.1806C12.3667 18.5472 12.855 19.7998 13.6666 20.7734L17.2594 17.1806L13.6666 13.5877Z" fill="white"/>
<path d="M14.3884 21.4953L18.1927 17.691C18.3841 17.4995 18.4917 17.2399 18.4917 16.9691V11.5889C21.3533 11.8467 23.5959 14.2518 23.5959 17.1806C23.5959 20.2814 21.0821 22.7951 17.9813 22.7951C16.6146 22.7951 15.362 22.3069 14.3884 21.4953Z" fill="white"/>
</g>
<defs>
<filter id="filter0_d_3_18787" x="0.831641" y="0.643359" width="34.3001" height="34.2996" filterUnits="userSpaceOnUse" color-interpolation-filters="sRGB">
<feFlood flood-opacity="0" result="BackgroundImageFix"/>
<feColorMatrix in="SourceAlpha" type="matrix" values="0 0 0 0 0 0 0 0 0 0 0 0 0 0 0 0 0 0 127 0" result="hardAlpha"/>
<feOffset dy="0.6125"/>
<feGaussianBlur stdDeviation="0.6125"/>
<feComposite in2="hardAlpha" operator="out"/>
<feColorMatrix type="matrix" values="0 0 0 0 0.0627451 0 0 0 0 0.0941176 0 0 0 0 0.156863 0 0 0 0.04 0"/>
<feBlend mode="normal" in2="BackgroundImageFix" result="effect1_dropShadow_3_18787"/>
<feBlend mode="normal" in="SourceGraphic" in2="effect1_dropShadow_3_18787" result="shape"/>
</filter>
</defs>
</svg>
